<?xml version="1.0" encoding="UTF-8" standalone="no"?>
<!-- Created with Inkscape (http://www.inkscape.org/) -->

<svg
   xmlns:dc="http://purl.org/dc/elements/1.1/"
   xmlns:cc="http://creativecommons.org/ns#"
   xmlns:rdf="http://www.w3.org/1999/02/22-rdf-syntax-ns#"
   xmlns:svg="http://www.w3.org/2000/svg"
   xmlns="http://www.w3.org/2000/svg"
   xmlns:xlink="http://www.w3.org/1999/xlink"
   xmlns:sodipodi="http://sodipodi.sourceforge.net/DTD/sodipodi-0.dtd"
   xmlns:inkscape="http://www.inkscape.org/namespaces/inkscape"
   width="156"
   height="92.21875"
   id="svg2995"
   version="1.1"
   inkscape:version="0.48.4 r9939"
   sodipodi:docname="logoDraft03.svg"
   style="enable-background:new">
  <defs
     id="defs2997">
    <inkscape:path-effect
       effect="envelope"
       id="path-effect4012"
       is_visible="true"
       yy="true"
       xx="true"
       bendpath1="m 598.78107,101.7581 65.02401,-7.661503"
       bendpath2="m 651.97024,101.7581 31.89179,10.99082"
       bendpath3="m 598.78107,133.24188 53.18917,0"
       bendpath4="m 598.78107,101.7581 0,31.48378"
       bendpath1-nodetypes="cc"
       bendpath2-nodetypes="cc" />
    <inkscape:path-effect
       effect="bend_path"
       id="path-effect4010"
       is_visible="true"
       bendpath="m 598.78107,117.49999 53.18917,0"
       prop_scale="1"
       scale_y_rel="false"
       vertical="false" />
    <linearGradient
       inkscape:collect="always"
       id="linearGradient6225">
      <stop
         style="stop-color:#ff7f2a;stop-opacity:1;"
         offset="0"
         id="stop6227" />
      <stop
         style="stop-color:#ff7f2a;stop-opacity:0;"
         offset="1"
         id="stop6229" />
    </linearGradient>
    <linearGradient
       id="linearGradient6187">
      <stop
         style="stop-color:#3e5bff;stop-opacity:0;"
         offset="0"
         id="stop6189" />
      <stop
         id="stop6199"
         offset="0.125"
         style="stop-color:#209fff;stop-opacity:0;" />
      <stop
         id="stop6197"
         offset="0.25"
         style="stop-color:#02e4ff;stop-opacity:0;" />
      <stop
         id="stop6195"
         offset="0.5"
         style="stop-color:#02e4ff;stop-opacity:0;" />
      <stop
         style="stop-color:#02e4ff;stop-opacity:0;"
         offset="1"
         id="stop6191" />
    </linearGradient>
    <linearGradient
       inkscape:collect="always"
       id="linearGradient4740">
      <stop
         style="stop-color:#ff8080;stop-opacity:1;"
         offset="0"
         id="stop4742" />
      <stop
         style="stop-color:#7f1e1e;stop-opacity:0.15789473"
         offset="1"
         id="stop4744" />
    </linearGradient>
    <linearGradient
       inkscape:collect="always"
       xlink:href="#linearGradient4740"
       id="linearGradient4746"
       x1="934.26483"
       y1="91.122032"
       x2="882.46924"
       y2="148.57446"
       gradientUnits="userSpaceOnUse" />
    <linearGradient
       inkscape:collect="always"
       xlink:href="#linearGradient4740"
       id="linearGradient6193"
       x1="807.9375"
       y1="125.625"
       x2="965.0625"
       y2="125.625"
       gradientUnits="userSpaceOnUse" />
    <linearGradient
       inkscape:collect="always"
       xlink:href="#linearGradient6225"
       id="linearGradient6231"
       x1="843"
       y1="82.75"
       x2="888.75"
       y2="216.5"
       gradientUnits="userSpaceOnUse" />
    <linearGradient
       inkscape:collect="always"
       xlink:href="#linearGradient6225"
       id="linearGradient6237"
       gradientUnits="userSpaceOnUse"
       x1="843"
       y1="82.75"
       x2="888.75"
       y2="216.5"
       gradientTransform="matrix(0.35235778,0,0,0.35235778,312.85181,73.051892)" />
    <linearGradient
       inkscape:collect="always"
       xlink:href="#linearGradient6225"
       id="linearGradient3240"
       gradientUnits="userSpaceOnUse"
       gradientTransform="translate(1.1649345e-5,-7.3264601e-7)"
       x1="843"
       y1="82.75"
       x2="888.75"
       y2="216.5" />
  </defs>
  <sodipodi:namedview
     id="base"
     pagecolor="#ffffff"
     bordercolor="#666666"
     borderopacity="1.0"
     inkscape:pageopacity="0.0"
     inkscape:pageshadow="2"
     inkscape:zoom="4"
     inkscape:cx="79.869367"
     inkscape:cy="63.529788"
     inkscape:current-layer="layer3"
     inkscape:document-units="px"
     showgrid="true"
     showguides="true"
     inkscape:snap-to-guides="true"
     inkscape:window-width="1920"
     inkscape:window-height="1030"
     inkscape:window-x="0"
     inkscape:window-y="25"
     inkscape:window-maximized="1"
     inkscape:guide-bbox="true"
     inkscape:snap-global="true"
     objecttolerance="20"
     guidetolerance="10000"
     inkscape:snap-bbox="false"
     inkscape:snap-bbox-midpoints="true"
     inkscape:snap-nodes="false"
     fit-margin-top="0"
     fit-margin-left="0"
     fit-margin-right="0"
     fit-margin-bottom="0">
    <inkscape:grid
       type="xygrid"
       id="grid3003"
       empspacing="5"
       visible="true"
       enabled="true"
       snapvisiblegridlinesonly="true"
       spacingx="256px"
       spacingy="256px"
       color="#000096"
       opacity="0.39215686"
       originx="-314.53125px"
       originy="-141.8125px" />
    <sodipodi:guide
       orientation="0,1"
       position="53.07589,435.36341"
       id="guide3167" />
    <sodipodi:guide
       orientation="1,0"
       position="319.38998,558.06853"
       id="guide3213" />
    <sodipodi:guide
       orientation="0,1"
       position="317.346,552.32329"
       id="guide3215" />
    <sodipodi:guide
       orientation="1,0"
       position="320.76,559.28387"
       id="guide3219" />
    <sodipodi:guide
       orientation="0,1"
       position="301.62392,510.75867"
       id="guide4628" />
    <sodipodi:guide
       orientation="0,1"
       position="-208.03125,243.32814"
       id="guide3103" />
    <sodipodi:guide
       orientation="1,0"
       position="-208.03125,243.32814"
       id="guide3105" />
    <sodipodi:guide
       orientation="1,0"
       position="-205.79297,246.76563"
       id="guide4087" />
    <sodipodi:guide
       orientation="1,0"
       position="-210.26563,247.77344"
       id="guide4089" />
    <sodipodi:guide
       orientation="0,1"
       position="-205.79297,272.625"
       id="guide4099" />
  </sodipodi:namedview>
  <metadata
     id="metadata3000">
    <rdf:RDF>
      <cc:Work
         rdf:about="">
        <dc:format>image/svg+xml</dc:format>
        <dc:type
           rdf:resource="http://purl.org/dc/dcmitype/StillImage" />
        <dc:title></dc:title>
      </cc:Work>
    </rdf:RDF>
  </metadata>
  <g
     id="layer1"
     inkscape:label="Cell Numbers"
     inkscape:groupmode="layer"
     style="display:inline"
     sodipodi:insensitive="true"
     transform="translate(-314.53125,-533.96875)">
    <text
       xml:space="preserve"
       style="font-size:10px;font-style:normal;font-variant:normal;font-weight:normal;font-stretch:normal;text-indent:0;text-align:start;text-decoration:none;line-height:125%;letter-spacing:0px;word-spacing:0px;text-transform:none;direction:ltr;block-progression:tb;writing-mode:lr-tb;text-anchor:start;baseline-shift:baseline;color:#000000;fill:#000000;fill-opacity:1;fill-rule:nonzero;stroke:none;marker:none;visibility:visible;display:inline;overflow:visible;enable-background:accumulate;font-family:Sans;-inkscape-font-specification:Sans"
       x="8.4852905"
       y="250.39784"
       id="text3024"
       sodipodi:linespacing="125%"><tspan
         sodipodi:role="line"
         id="tspan3026"
         x="8.4852905"
         y="250.39784">1</tspan></text>
    <text
       xml:space="preserve"
       style="font-size:10px;font-style:normal;font-variant:normal;font-weight:normal;font-stretch:normal;text-indent:0;text-align:start;text-decoration:none;line-height:125%;letter-spacing:0px;word-spacing:0px;text-transform:none;direction:ltr;block-progression:tb;writing-mode:lr-tb;text-anchor:start;baseline-shift:baseline;color:#000000;fill:#000000;fill-opacity:1;fill-rule:nonzero;stroke:none;marker:none;visibility:visible;display:inline;overflow:visible;enable-background:accumulate;font-family:Sans;-inkscape-font-specification:Sans"
       x="264.48529"
       y="250.39784"
       id="text3024-1"
       sodipodi:linespacing="125%"><tspan
         sodipodi:role="line"
         id="tspan3026-5"
         x="264.48529"
         y="250.39784">2</tspan></text>
    <text
       xml:space="preserve"
       style="font-size:10px;font-style:normal;font-variant:normal;font-weight:normal;font-stretch:normal;text-indent:0;text-align:start;text-decoration:none;line-height:125%;letter-spacing:0px;word-spacing:0px;text-transform:none;direction:ltr;block-progression:tb;writing-mode:lr-tb;text-anchor:start;baseline-shift:baseline;color:#000000;fill:#000000;fill-opacity:1;fill-rule:nonzero;stroke:none;marker:none;visibility:visible;display:inline;overflow:visible;enable-background:accumulate;font-family:Sans;-inkscape-font-specification:Sans"
       x="776.48529"
       y="250.39784"
       id="text3024-3"
       sodipodi:linespacing="125%"><tspan
         sodipodi:role="line"
         x="776.48529"
         y="250.39784"
         id="tspan3195">4</tspan></text>
    <text
       xml:space="preserve"
       style="font-size:10px;font-style:normal;font-variant:normal;font-weight:normal;font-stretch:normal;text-indent:0;text-align:start;text-decoration:none;line-height:125%;letter-spacing:0px;word-spacing:0px;text-transform:none;direction:ltr;block-progression:tb;writing-mode:lr-tb;text-anchor:start;baseline-shift:baseline;color:#000000;fill:#000000;fill-opacity:1;fill-rule:nonzero;stroke:none;marker:none;visibility:visible;display:inline;overflow:visible;enable-background:accumulate;font-family:Sans;-inkscape-font-specification:Sans"
       x="520.48529"
       y="250.39784"
       id="text3024-1-4"
       sodipodi:linespacing="125%"><tspan
         sodipodi:role="line"
         x="520.48529"
         y="250.39784"
         id="tspan3191">3</tspan></text>
    <text
       xml:space="preserve"
       style="font-size:10px;font-style:normal;font-weight:normal;line-height:125%;letter-spacing:0px;word-spacing:0px;fill:#000000;fill-opacity:1;stroke:none;font-family:Sans"
       x="8.4852905"
       y="506.39783"
       id="text3024-14"
       sodipodi:linespacing="125%"><tspan
         sodipodi:role="line"
         id="tspan3026-6"
         x="8.4852905"
         y="506.39783">5</tspan></text>
    <text
       xml:space="preserve"
       style="font-size:10px;font-style:normal;font-weight:normal;line-height:125%;letter-spacing:0px;word-spacing:0px;fill:#000000;fill-opacity:1;stroke:none;font-family:Sans"
       x="264.48529"
       y="506.39783"
       id="text3024-1-5"
       sodipodi:linespacing="125%"><tspan
         sodipodi:role="line"
         id="tspan3026-5-2"
         x="264.48529"
         y="506.39783">6</tspan></text>
    <text
       xml:space="preserve"
       style="font-size:10px;font-style:normal;font-weight:normal;line-height:125%;letter-spacing:0px;word-spacing:0px;fill:#000000;fill-opacity:1;stroke:none;font-family:Sans"
       x="776.48523"
       y="506.39783"
       id="text3024-3-0"
       sodipodi:linespacing="125%"><tspan
         sodipodi:role="line"
         x="776.48523"
         y="506.39783"
         id="tspan3199">8</tspan></text>
    <text
       xml:space="preserve"
       style="font-size:10px;font-style:normal;font-weight:normal;line-height:125%;letter-spacing:0px;word-spacing:0px;fill:#000000;fill-opacity:1;stroke:none;font-family:Sans"
       x="520.48523"
       y="506.39783"
       id="text3024-1-4-5"
       sodipodi:linespacing="125%"><tspan
         sodipodi:role="line"
         id="tspan3026-5-0-1"
         x="520.48523"
         y="506.39783">7</tspan></text>
    <text
       xml:space="preserve"
       style="font-size:10px;font-style:normal;font-weight:normal;line-height:125%;letter-spacing:0px;word-spacing:0px;fill:#000000;fill-opacity:1;stroke:none;font-family:Sans"
       x="10.485291"
       y="760.39783"
       id="text3024-14-1"
       sodipodi:linespacing="125%"><tspan
         sodipodi:role="line"
         id="tspan3026-6-1"
         x="10.485291"
         y="760.39783">9</tspan></text>
    <text
       xml:space="preserve"
       style="font-size:10px;font-style:normal;font-weight:normal;line-height:125%;letter-spacing:0px;word-spacing:0px;fill:#000000;fill-opacity:1;stroke:none;font-family:Sans"
       x="266.48529"
       y="760.39783"
       id="text3024-1-5-2"
       sodipodi:linespacing="125%"><tspan
         sodipodi:role="line"
         id="tspan3026-5-2-5"
         x="266.48529"
         y="760.39783">10</tspan></text>
    <text
       xml:space="preserve"
       style="font-size:10px;font-style:normal;font-weight:normal;line-height:125%;letter-spacing:0px;word-spacing:0px;fill:#000000;fill-opacity:1;stroke:none;font-family:Sans"
       x="778.48523"
       y="760.39783"
       id="text3024-3-0-1"
       sodipodi:linespacing="125%"><tspan
         sodipodi:role="line"
         id="tspan3026-1-4-0"
         x="778.48523"
         y="760.39783">12</tspan></text>
    <text
       xml:space="preserve"
       style="font-size:10px;font-style:normal;font-weight:normal;line-height:125%;letter-spacing:0px;word-spacing:0px;fill:#000000;fill-opacity:1;stroke:none;font-family:Sans"
       x="522.48523"
       y="760.39783"
       id="text3024-1-4-5-6"
       sodipodi:linespacing="125%"><tspan
         sodipodi:role="line"
         id="tspan3026-5-0-1-2"
         x="522.48523"
         y="760.39783">11</tspan></text>
  </g>
  <g
     inkscape:groupmode="layer"
     id="layer3"
     inkscape:label="gear"
     transform="translate(-314.53125,-533.96875)">
    <g
       transform="translate(-596.64944,158.82933)"
       style="font-size:85.72847748px;font-style:normal;font-weight:normal;line-height:125%;letter-spacing:-3.4720037px;word-spacing:0px;fill:#000000;fill-opacity:1;stroke:none;font-family:'Mixolydian Titling ek\'';-inkscape-font-specification:'Mixolydian Titling ek\''"
       id="text3438-1-1-5-3-82-5-8-5">
      <path
         id="path3535-9-3"
         style="letter-spacing:-4.35072041px;fill:#000000;stroke:none;font-family:Mixolydian Titling el;-inkscape-font-specification:Mixolydian Titling el"
         d="m 650.11787,126.70507 -13.30506,-11.28544 -0.30862,0 c -2.9e-4,6.304 -9.8e-4,11.51424 -0.002,17.81824 l -1.37002,0 c 10e-4,-10.48755 9.9e-4,-20.97509 10e-4,-31.46264 l 1.37165,0 0,12.47849 0.20575,0 13.06502,-12.47849 1.81744,0 -13.61368,12.88999 13.99089,12.03985 -1.85174,0 m -17.14356,6.53681 0,-22.42657 -7.68127,15.87692 -1.26878,0 -7.61269,-15.87692 0,22.42657 -1.37166,0 0,-24.92984 1.85174,0 7.81844,16.42558 7.85273,-16.42558 1.74886,0 0,24.92984 -1.33737,0 m -18.72846,-31.48378 0,24.92984 -8.40139,0 c -0.84584,-2e-5 -1.6574,-0.13719 -2.43469,-0.4115 -0.77726,-0.25149 -1.45165,-0.65156 -2.02319,-1.2002 -0.57151,-0.52582 -1.02873,-1.18879 -1.37166,-1.9889 -0.34289,-0.80015 -0.51435,-1.74888 -0.51437,-2.84618 2e-5,-1.16593 0.29721,-2.24039 0.89158,-3.22339 0.57154,-0.98304 1.44025,-1.66886 2.60615,-2.05749 -0.52579,-0.13717 -1.04016,-0.35435 -1.54312,-0.65153 -0.50292,-0.27435 -0.94871,-0.66298 -1.33736,-1.16591 -0.41148,-0.48009 -0.73153,-1.07447 -0.96016,-1.78315 -0.25145,-0.7087 -0.37719,-1.53169 -0.3772,-2.46898 10e-6,-2.2861 0.66298,-4.04639 1.9889,-5.28088 1.30308,-1.23449 3.2234,-1.85173 5.76095,-1.85173 l 7.71556,0 m -7.88702,1.33736 c -1.96602,0 -3.47484,0.50294 -4.52646,1.50882 -1.07445,1.00588 -1.61168,2.43469 -1.6117,4.28643 2e-5,0.84584 0.13719,1.58882 0.4115,2.22894 0.25149,0.66295 0.60583,1.21162 1.06303,1.64598 0.45724,0.45721 1.0059,0.80013 1.64599,1.02875 0.61726,0.25145 1.29165,0.37719 2.02319,0.3772 l 7.50982,0 0,-11.07612 -6.51537,0 m -0.96016,12.3449 c -0.70867,-1e-5 -1.34878,0.12572 -1.92031,0.37721 -0.57151,0.27432 -1.04016,0.62866 -1.40595,1.06303 -0.38862,0.4572 -0.68581,0.97158 -0.89158,1.54311 -0.20573,0.57151 -0.3086,1.15446 -0.30862,1.74887 10e-6,0.86869 0.13718,1.6231 0.4115,2.26323 0.25148,0.66294 0.61726,1.20017 1.09732,1.61169 0.45723,0.43434 0.99446,0.75439 1.6117,0.96016 0.59439,0.20573 1.2345,0.3086 1.92031,0.30862 l 6.96116,10e-6 0,-9.87593 -7.47553,0"
         inkscape:connector-curvature="0"
         sodipodi:nodetypes="ccccccccccccccccccccccccccccccccccccccccccsccccccccccccccccccccccc" />
    </g>
    <g
       transform="matrix(2.8978192,0,0,2.8978192,-1420.1193,239.57906)"
       style="font-size:85.72847748px;font-style:normal;font-weight:normal;line-height:125%;letter-spacing:-3.4720037px;word-spacing:0px;fill:none;stroke:#000000;stroke-width:0.34508708;stroke-miterlimit:4;stroke-dasharray:none;font-family:'Mixolydian Titling ek\'';-inkscape-font-specification:'Mixolydian Titling ek\''"
       id="text3438-1-1-5-3-82-5-8-5-3" />
    <path
       id="path3062"
       style="fill:none;stroke:#000000;stroke-width:1px;stroke-linecap:butt;stroke-linejoin:miter;stroke-opacity:1"
       d="m 463.80475,606.74744 -38.55566,-32.70316 -0.89433,0 c -8.4e-4,18.26785 -0.003,33.36619 -0.006,51.63404 l -3.97007,0 c 0.003,-30.39103 0.003,-60.78202 0.003,-91.17304 l 3.9748,0 0,36.1604 0.59622,0 37.86007,-36.1604 5.26661,0 -39.44998,37.35286 40.54307,34.8893 -5.36601,0 m -49.67818,18.9419 3.87546,0 0,-72.24217 -5.06788,0 -22.7558,47.59836 -22.65642,-47.59836 -5.36601,0 c -0.0137,29.70169 -0.002,23.55641 -0.0667,53.25804 1.51482,0 2.08177,0.0232 4.05817,0.0232 -0.0178,-27.28383 0,-18.74278 -0.0174,-46.02662 l 22.0602,46.00845 3.67669,0 22.25893,-46.00845 0,64.98815 m -54.27093,-91.2349 0,72.24217 -24.34571,0 c -2.45109,-6e-5 -4.80285,-0.39756 -7.05529,-1.19246 -2.25236,-0.72877 -4.20662,-1.8881 -5.86284,-3.47796 -1.65613,-1.52373 -2.98107,-3.4449 -3.97482,-5.76347 -0.99364,-2.31869 -1.4905,-5.06794 -1.49055,-8.24772 5e-5,-3.37865 0.86126,-6.49224 2.58363,-9.3408 1.65622,-2.84867 4.17359,-4.83605 7.55215,-5.96223 -1.52364,-0.3975 -3.01419,-1.02685 -4.47168,-1.88802 -1.45737,-0.79502 -2.74919,-1.9212 -3.87543,-3.3786 -1.19239,-1.39121 -2.11984,-3.11362 -2.78237,-5.16724 -0.72865,-2.05369 -1.09302,-4.43856 -1.09305,-7.15466 3e-5,-6.6247 1.92119,-11.72571 5.76347,-15.30303 3.77609,-3.57733 9.34083,-5.36598 16.69419,-5.36598 l 22.3583,0 m -22.85516,3.87542 c -5.69717,0 -10.06946,1.45743 -13.11686,4.37229 -3.11356,2.91486 -4.67036,7.05529 -4.67042,12.4213 6e-5,2.45109 0.39755,4.60411 1.19246,6.45907 0.72877,1.9211 1.75558,3.51105 3.08046,4.76975 1.325,1.32491 2.91492,2.31863 4.76979,2.98113 1.7887,0.72866 3.74296,1.09303 5.86283,1.09306 l 21.76211,0 0,-32.0966 -18.88037,0 m -2.78237,35.77329 c -2.0536,-3e-5 -3.90852,0.36432 -5.56471,1.09309 -1.65613,0.79493 -3.0142,1.82174 -4.07419,3.08047 -1.12615,1.32488 -1.98735,2.81546 -2.58364,4.47165 -0.59617,1.65613 -0.89426,3.34542 -0.89432,5.06791 3e-5,2.51731 0.39752,4.70345 1.19245,6.55843 0.72874,1.92108 1.78871,3.47788 3.17984,4.67039 1.32497,1.25864 2.88176,2.18608 4.67041,2.78237 1.72244,0.59617 3.57736,0.89426 5.56471,0.89432 l 20.17219,3e-5 0,-28.61866 -21.66274,0"
       inkscape:connector-curvature="0"
       sodipodi:nodetypes="ccccccccccccccccccccccccccccccccccccccccccsccccccccccccccccccccccc" />
  </g>
</svg>
